<svg xmlns="http://www.w3.org/2000/svg" width="731" height="260" viewBox="0 0 731 260" role="img" aria-label="fluux">
  <title>fluux</title>
  <defs>
    <linearGradient id="aurora" x1="0" y1="0" x2="1024" y2="1024" gradientUnits="userSpaceOnUse">
      <stop offset="0" stop-color="#38E0C4"/><stop offset="0.52" stop-color="#7C8CFF"/><stop offset="1" stop-color="#A78BFA"/>
    </linearGradient>
    <linearGradient id="bubble" x1="262" y1="315" x2="262" y2="672" gradientUnits="userSpaceOnUse">
      <stop offset="0" stop-color="#FFFFFF"/><stop offset="1" stop-color="#EAF0FF"/>
    </linearGradient>
    <filter id="depth" x="-20%" y="-20%" width="140%" height="150%">
      <feDropShadow dx="0" dy="16" stdDeviation="22" flood-color="#1A1145" flood-opacity="0.25"/>
    </filter>
<linearGradient id="textAurora" x1="264" y1="0" x2="691.3199999999999" y2="0" gradientUnits="userSpaceOnUse"><stop offset="0" stop-color="#2BC6AE"/><stop offset="0.55" stop-color="#7C8CFF"/><stop offset="1" stop-color="#A78BFA"/></linearGradient></defs>
  <g transform="translate(40,40) scale(0.17578125)">
    <rect x="61" y="61" width="902" height="902" rx="225" fill="url(#aurora)"/>
    <g filter="url(#depth)" fill="url(#bubble)">
      <rect x="262" y="315" width="500" height="357" rx="132"/>
      <path d="M405 665 L332 808 L548 665 Z"/>
    </g>
  </g>
  <g transform="translate(264,193.27) scale(0.18,-0.18)" fill="url(#textAurora)"><path d="M161 -8Q131 -8 114.5 8.5Q98 25 98 56V395H52Q28 395 15.0 407.5Q2 420 2 442Q2 465 15.0 477.0Q28 489 52 489H134L98 456V490Q98 593 150.0 644.5Q202 696 300 705L334 708Q354 710 366.0 701.5Q378 693 382.0 679.5Q386 666 383.0 652.0Q380 638 370.5 627.5Q361 617 346 616L332 615Q275 611 249.0 586.0Q223 561 223 510V473L207 489H308Q332 489 345.0 477.0Q358 465 358 442Q358 420 345.0 407.5Q332 395 308 395H223V56Q223 -8 161 -8Z M604 -10Q521 -10 479.0 37.5Q437 85 437 177V650Q437 681 453.0 697.0Q469 713 499 713Q529 713 545.5 697.0Q562 681 562 650V183Q562 137 581.5 115.0Q601 93 637 93Q645 93 652.0 93.5Q659 94 666 95Q680 97 685.0 87.5Q690 78 690 49Q690 24 680.0 10.0Q670 -4 647 -7Q637 -8 626.0 -9.0Q615 -10 604 -10Z M941 -10Q880 -10 840.0 12.5Q800 35 780.5 80.0Q761 125 761 192V434Q761 466 777.0 481.5Q793 497 823 497Q853 497 869.5 481.5Q886 466 886 434V190Q886 138 907.0 113.0Q928 88 974 88Q1024 88 1056.0 122.5Q1088 157 1088 214V434Q1088 466 1104.0 481.5Q1120 497 1150 497Q1180 497 1196.5 481.5Q1213 466 1213 434V56Q1213 -8 1152 -8Q1123 -8 1107.0 8.5Q1091 25 1091 56V132L1105 102Q1084 48 1041.5 19.0Q999 -10 941 -10Z M1528 -10Q1467 -10 1427.0 12.5Q1387 35 1367.5 80.0Q1348 125 1348 192V434Q1348 466 1364.0 481.5Q1380 497 1410 497Q1440 497 1456.5 481.5Q1473 466 1473 434V190Q1473 138 1494.0 113.0Q1515 88 1561 88Q1611 88 1643.0 122.5Q1675 157 1675 214V434Q1675 466 1691.0 481.5Q1707 497 1737 497Q1767 497 1783.5 481.5Q1800 466 1800 434V56Q1800 -8 1739 -8Q1710 -8 1694.0 8.5Q1678 25 1678 56V132L1692 102Q1671 48 1628.5 19.0Q1586 -10 1528 -10Z M1972 -5Q1950 -5 1935.5 7.5Q1921 20 1920.5 40.0Q1920 60 1937 82L2099 282V223L1947 410Q1929 432 1930.0 452.0Q1931 472 1945.5 484.5Q1960 497 1982 497Q2005 497 2020.5 489.0Q2036 481 2049 464L2169 310H2125L2246 464Q2260 481 2275.0 489.0Q2290 497 2312 497Q2335 497 2349.0 484.0Q2363 471 2363.5 451.0Q2364 431 2346 409L2195 224V280L2357 82Q2375 61 2374.0 41.0Q2373 21 2358.5 8.0Q2344 -5 2321 -5Q2299 -5 2284.0 3.0Q2269 11 2255 28L2125 192H2167L2038 28Q2025 12 2010.0 3.5Q1995 -5 1972 -5Z"/></g>
</svg>
